<svg xmlns="http://www.w3.org/2000/svg" width="1466.694" height="498.282" viewBox="0 0 1466.694 498.282">
  <path id="Vector_2" data-name="Vector 2" d="M0,374C90,413.333,165.94,98.66,416,192,850,354,830-80,1080,14c211.908,79.678,330.667,50,386-14" transform="translate(0.24 0.392)" fill="none" stroke="rgba(255,255,255,0.2)" stroke-width="1.2" stroke-dasharray="0 0"/>
  <path id="Vector_3" data-name="Vector 3" d="M0,374C90,413.333,165.94,98.66,416,192,850,354,830-80,1080,14c211.908,79.678,330.667,50,386-14" transform="translate(0.24 30.392)" fill="none" stroke="rgba(255,255,255,0.2)" stroke-width="1.2" stroke-dasharray="0 0"/>
  <path id="Vector_4" data-name="Vector 4" d="M0,374C90,413.333,165.94,98.66,416,192,850,354,830-80,1080,14c211.908,79.678,330.667,50,386-14" transform="translate(0.24 60.392)" fill="none" stroke="rgba(255,255,255,0.2)" stroke-width="1.2" stroke-dasharray="0 0"/>
  <path id="Vector_5" data-name="Vector 5" d="M0,374C90,413.333,165.94,98.66,416,192,850,354,830-80,1080,14c211.908,79.678,330.667,50,386-14" transform="translate(0.24 90.392)" fill="none" stroke="rgba(255,255,255,0.2)" stroke-width="1.2" stroke-dasharray="0 0"/>
  <path id="Vector_6" data-name="Vector 6" d="M0,374C90,413.333,165.94,98.66,416,192,850,354,830-80,1080,14c211.908,79.678,330.667,50,386-14" transform="translate(0.24 120.392)" fill="none" stroke="rgba(255,255,255,0.2)" stroke-width="1.2" stroke-dasharray="0 0"/>
</svg>
